HIERARCHY
ROOT root
{
	OFFSET 0.000000 0.000000 0.000000
	CHANNELS 6 Xposition Yposition Zposition Zrotation Yrotation Xrotation
	JOINT lhip
	{
		OFFSET 0.058581 -0.082280 -0.017664
		CHANNELS 3 Zrotation Yrotation Xrotation
		JOINT lknee
		{
			OFFSET 0.043451 -0.386469 0.008037
			CHANNELS 3 Zrotation Yrotation Xrotation
			JOINT lankle
			{
				OFFSET -0.014790 -0.426874 -0.037428
				CHANNELS 3 Zrotation Yrotation Xrotation
				JOINT ltoe
				{
					OFFSET 0.041054 -0.060286 0.122042
					CHANNELS 3 Zrotation Yrotation Xrotation
					End Site
					{
						OFFSET 0.000000 0.000000 0.000000
					}
				}
			}
		}
	}
	JOINT rhip
	{
		OFFSET -0.060310 -0.090513 -0.013543
		CHANNELS 3 Zrotation Yrotation Xrotation
		JOINT rknee
		{
			OFFSET -0.043257 -0.383688 -0.004843
			CHANNELS 3 Zrotation Yrotation Xrotation
			JOINT rankle
			{
				OFFSET 0.019056 -0.420046 -0.034562
				CHANNELS 3 Zrotation Yrotation Xrotation
				JOINT rtoe
				{
					OFFSET -0.034840 -0.062106 0.130323
					CHANNELS 3 Zrotation Yrotation Xrotation
					End Site
					{
						OFFSET 0.000000 0.000000 0.000000
					}
				}
			}
		}
	}
	JOINT lowerback
	{
		OFFSET 0.004439 0.124404 -0.038385
		CHANNELS 3 Zrotation Yrotation Xrotation
		JOINT upperback
		{
			OFFSET 0.004488 0.137956 0.026820
			CHANNELS 3 Zrotation Yrotation Xrotation
			JOINT chest
			{
				OFFSET -0.002265 0.056032 0.002855
				CHANNELS 3 Zrotation Yrotation Xrotation
				JOINT lowerneck
				{
					OFFSET -0.013390 0.211636 -0.033468
					CHANNELS 3 Zrotation Yrotation Xrotation
					JOINT upperneck
					{
						OFFSET 0.010113 0.088937 0.050410
						CHANNELS 3 Zrotation Yrotation Xrotation
						End Site
						{
							OFFSET 0.000000 0.000000 0.000000
						}
					}
				}
				JOINT lclavicle
				{
					OFFSET 0.071702 0.114000 -0.018898
					CHANNELS 3 Zrotation Yrotation Xrotation
					JOINT lshoulder
					{
						OFFSET 0.122921 0.045205 -0.019046
						CHANNELS 3 Zrotation Yrotation Xrotation
						JOINT lelbow
						{
							OFFSET 0.255332 -0.015649 -0.022946
							CHANNELS 3 Zrotation Yrotation Xrotation
							JOINT lwrist
							{
								OFFSET 0.265709 0.012698 -0.007375
								CHANNELS 3 Zrotation Yrotation Xrotation
								End Site
								{
									OFFSET 0.000000 0.000000 0.000000
								}
							}
						}
					}
				}
				JOINT rclavicle
				{
					OFFSET -0.082954 0.112472 -0.023707
					CHANNELS 3 Zrotation Yrotation Xrotation
					JOINT rshoulder
					{
						OFFSET -0.113228 0.046853 -0.008472
						CHANNELS 3 Zrotation Yrotation Xrotation
						JOINT relbow
						{
							OFFSET -0.260127 -0.014369 -0.031269
							CHANNELS 3 Zrotation Yrotation Xrotation
							JOINT rwrist
							{
								OFFSET -0.269108 0.006794 -0.006027
								CHANNELS 3 Zrotation Yrotation Xrotation
								End Site
								{
									OFFSET 0.000000 0.000000 0.000000
								}
							}
						}
					}
				}
			}
		}
	}
}
MOTION
Frames: 8
Frame Time: 0.033333
0.716457 0.320503 0.981140 -74.332349 -6.777482 93.885920 8.847539 -0.646071 14.724362 -11.134935 -28.960595 31.915767 0.473939 9.746180 -35.366407 0.000000 -0.000000 0.000000 -15.188043 -8.356307 -24.278784 1.854643 0.032544 10.505337 11.020265 -9.305896 6.423949 0.000000 -0.000000 0.000000 -4.845391 -7.853643 7.761000 -0.813308 -7.677493 -1.099933 -2.473430 -6.642960 9.694239 -1.904149 -3.227443 11.816957 2.464540 -4.672964 10.067788 -19.969566 13.364327 5.824592 -39.838065 -8.469416 -0.532626 -2.295652 -41.823563 5.400524 0.744168 -2.662053 -14.745706 20.466561 -15.524477 -1.953507 59.386042 -7.941750 9.576144 -10.042423 30.171554 -3.570938 2.372211 -1.517281 1.714519 
0.705673 0.327418 0.985076 -73.722151 -8.000966 95.655428 9.063054 -0.437723 13.718325 -11.004225 -28.753603 29.893146 -0.490738 8.269196 -32.519901 0.000000 -0.000000 0.000000 -15.991670 -8.385612 -24.758995 2.059421 -0.790415 9.747989 10.051709 -9.382109 5.902859 0.000000 -0.000000 0.000000 -4.166198 -9.113696 8.706396 -0.380010 -9.459653 -0.057424 -2.345240 -7.374245 8.553829 -2.255270 -2.410386 10.987852 2.544448 -3.963859 8.816849 -19.673473 11.006727 6.167824 -38.563752 -8.095076 -0.166819 -3.542074 -42.290339 10.219903 -0.896095 -4.056582 -12.323558 20.542370 -14.812468 -2.172075 59.886209 -8.058131 9.622709 -10.417628 34.515828 -2.909620 4.960123 -0.898735 -2.082417 
0.694134 0.334319 0.987125 -73.798577 -8.673417 96.454565 9.578146 0.280715 14.406541 -10.271175 -28.933719 27.499860 -1.278415 6.990604 -30.005625 0.000000 -0.000000 0.000000 -16.402816 -8.351919 -25.446134 2.421682 -1.794388 10.995464 9.754872 -8.515737 4.941840 0.000000 -0.000000 0.000000 -3.176259 -9.386778 10.441217 0.111688 -9.806784 0.349588 -2.339618 -7.843638 7.737012 -2.030282 -1.747402 9.962428 2.794809 -5.000100 8.354237 -18.272493 8.073893 5.831329 -38.111470 -9.203811 0.774468 -4.071345 -42.699229 13.383999 -0.541778 -5.107531 -9.729624 20.239891 -14.036675 -2.664613 60.908547 -8.966173 9.207802 -10.222379 36.147486 -2.389980 5.145214 -0.647037 -3.400451 
0.683586 0.342023 0.986903 -74.452810 -8.906858 97.625538 9.560731 0.091649 14.672041 -9.626707 -29.127495 25.937731 -1.770627 7.217640 -28.019017 0.000000 -0.000000 0.000000 -16.240128 -7.476607 -27.271738 2.655595 -1.943691 13.002922 9.204262 -8.575299 3.528324 0.000000 -0.000000 0.000000 -2.391309 -9.678203 11.690968 0.686310 -9.546634 0.286485 -2.048511 -7.942881 7.760764 -2.224262 -0.921738 8.381514 2.696168 -5.073412 7.646574 -17.432888 5.865786 5.022593 -37.516710 -11.067917 1.314550 -3.524948 -44.132159 12.872355 1.101518 -5.225435 -9.254095 19.885540 -12.918063 -2.936889 61.403386 -9.278594 9.897554 -10.150447 36.138457 -1.701578 4.996883 -1.080869 -2.303042 
0.672334 0.350072 0.985800 -74.608350 -8.988592 98.299840 10.169019 -0.261289 15.390026 -9.181800 -29.785175 24.224211 -2.909075 7.144960 -26.441012 0.000000 -0.000000 0.000000 -15.878598 -6.813776 -28.595779 2.736215 -2.529406 15.512368 8.484073 -8.198356 1.416009 0.000000 -0.000000 0.000000 -1.955783 -10.206640 12.741265 1.243464 -9.622856 1.401037 -1.429831 -7.937961 7.153907 -2.381648 0.107360 7.131565 2.649905 -5.233348 6.999335 -17.047211 3.884838 3.484059 -37.001884 -12.930953 1.485919 -2.086485 -45.418818 9.851821 1.471446 -4.739521 -10.654648 20.041917 -11.286910 -3.178108 60.897777 -9.474463 10.546245 -9.814529 35.728001 -1.096183 4.976417 -1.432642 -0.667012 
0.660587 0.357909 0.984499 -74.612595 -9.205982 98.935256 10.899757 -0.281629 15.914866 -8.756739 -30.365237 22.767633 -3.623750 6.447421 -23.913650 0.000000 -0.000000 0.000000 -15.849752 -6.375739 -29.733070 3.041673 -3.195363 17.897816 7.955913 -7.743710 -0.299694 0.000000 -0.000000 0.000000 -1.584581 -10.659846 13.459185 1.648884 -9.716289 2.142627 -1.081576 -8.047962 6.507922 -2.615516 0.392121 6.941765 2.955935 -5.369185 6.445934 -16.718881 2.087896 2.826761 -36.526268 -14.947391 1.236736 0.406670 -46.609302 6.278754 1.714171 -4.353529 -11.489022 19.976492 -10.206741 -3.157459 60.492420 -9.574881 10.541467 -8.992459 35.379740 -0.369115 6.230727 -1.715936 -0.305270 
0.649080 0.365799 0.984659 -74.382317 -9.582625 99.621074 11.124957 -0.486945 15.341663 -8.645273 -30.304700 23.058439 -4.134806 6.073619 -21.100160 0.000000 -0.000000 0.000000 -15.640092 -6.453800 -30.233720 3.069203 -3.685079 18.926187 7.381701 -7.189389 -1.583216 0.000000 -0.000000 0.000000 -1.276986 -11.139919 14.322554 1.892313 -10.042744 1.935138 -0.853184 -8.235079 6.282676 -3.118950 0.768849 6.742176 3.119234 -4.881463 5.942755 -16.215311 0.813425 2.246782 -37.035448 -16.888501 1.275816 3.647946 -47.458319 3.610730 2.377820 -4.430434 -12.494311 19.977155 -9.773857 -3.288620 60.482078 -9.461218 10.328685 -8.900182 35.161197 -0.172313 7.115574 -1.618783 -0.993498 
0.636146 0.373803 0.985862 -74.838533 -9.426696 99.881296 11.884418 -0.415341 15.534042 -8.739438 -29.241800 23.228514 -4.931719 5.253583 -17.898439 0.000000 -0.000000 0.000000 -14.831773 -5.820538 -30.081449 3.153152 -3.906007 19.558789 6.418572 -6.779921 -2.821448 0.000000 -0.000000 0.000000 -0.870552 -11.575463 15.008908 1.984343 -10.061563 2.539681 -0.670631 -8.381621 5.721144 -3.792102 1.324133 6.681438 3.169057 -4.150635 5.561811 -15.875033 -0.106000 1.777359 -38.029865 -17.971479 1.366590 6.692519 -48.805576 0.185600 3.239927 -3.944627 -13.574248 19.821812 -9.043723 -3.179683 60.633300 -9.284298 10.147640 -9.176361 35.369496 -1.210172 6.957998 -1.537201 -1.464869 
